<?xml version="1.0" standalone="no"?>
<!DOCTYPE svg PUBLIC "-//W3C//DTD SVG 20010904//EN"
 "http://www.w3.org/TR/2001/REC-SVG-20010904/DTD/svg10.dtd">
<svg version="1.0" xmlns="http://www.w3.org/2000/svg"
 width="964.000000pt" height="964.000000pt" viewBox="0 0 964.000000 964.000000"
 preserveAspectRatio="xMidYMid meet">
<metadata>
Created by potrace 1.14, written by Peter Selinger 2001-2017
</metadata>
<g transform="translate(0.000000,964.000000) scale(0.100000,-0.100000)"
fill="#000000" stroke="none">
<path d="M620 8091 c-237 -44 -443 -211 -530 -431 -51 -127 -50 -117 -56
-1210 -12 -2092 -11 -2403 11 -2525 26 -140 37 -196 56 -268 24 -93 83 -277
104 -322 7 -16 23 -53 34 -82 11 -29 39 -90 62 -135 312 -624 843 -1116 1474
-1368 172 -69 384 -130 535 -155 19 -3 46 -7 60 -10 150 -29 447 -39 615 -22
275 29 611 114 868 221 247 102 553 282 736 431 41 34 166 139 171 145 3 3 33
32 68 64 l61 60 59 -60 c415 -423 973 -708 1572 -804 118 -19 213 -25 380 -25
213 0 319 11 530 56 176 38 157 33 295 78 154 51 215 76 385 160 187 93 413
244 555 371 65 58 230 223 276 275 187 214 354 485 468 758 35 85 107 294 116
337 2 8 12 51 23 95 11 44 28 130 37 190 9 61 19 121 23 135 3 14 8 815 9
1781 l4 1756 -45 89 c-98 194 -284 342 -496 392 -333 80 -655 -70 -792 -368
-14 -30 -29 -68 -32 -85 -3 -16 -8 -255 -11 -530 -3 -275 -7 -702 -10 -950 -2
-247 -7 -715 -10 -1040 -10 -991 -10 -1004 -29 -1060 -33 -97 -147 -311 -213
-400 -210 -280 -505 -479 -841 -565 -169 -43 -314 -51 -462 -25 -53 9 -192 44
-215 54 -11 5 -36 15 -55 22 -87 31 -228 111 -314 177 -237 182 -413 456 -480
747 -9 39 -19 79 -21 90 -3 11 -8 75 -11 143 -6 107 -5 122 9 122 11 0 14 7
11 23 -13 65 -5 166 20 251 141 474 509 825 986 939 194 47 365 41 578 -19
330 -93 595 -290 784 -584 l48 -75 0 150 c1 83 3 502 5 933 l5 783 -103 49
c-168 79 -478 176 -621 195 -27 3 -52 8 -55 10 -6 3 -30 6 -181 21 -132 14
-495 7 -560 -11 -8 -2 -37 -6 -65 -10 -87 -11 -236 -45 -355 -82 -437 -134
-802 -358 -1121 -687 l-87 -90 -123 123 c-68 68 -171 162 -229 208 -102 81
-302 223 -315 223 -4 0 -19 8 -33 19 -46 31 -235 127 -328 166 -49 21 -102 43
-119 50 -129 57 -460 142 -620 160 -33 4 -63 9 -66 11 -12 7 -222 18 -359 19
-178 0 -258 -7 -400 -37 -30 -6 -59 -12 -65 -14 -5 -1 -57 -17 -115 -37 -129
-43 -238 -92 -352 -160 l-88 -51 -1 -261 c0 -143 -2 -578 -5 -967 -3 -390 -3
-708 -1 -708 3 0 34 44 70 98 173 259 436 459 735 560 280 95 513 87 797 -25
409 -162 712 -527 801 -965 19 -92 20 -133 12 -303 -22 -429 -224 -788 -586
-1043 -53 -38 -221 -118 -302 -145 -215 -72 -428 -81 -640 -27 -113 29 -185
57 -294 112 -377 194 -646 571 -706 988 -8 60 -14 590 -25 2551 -4 796 -5 802
-66 938 -94 209 -285 362 -506 406 -50 10 -287 14 -333 6z m386 -127 c202 -69
351 -232 398 -435 16 -69 18 -179 31 -2454 3 -445 7 -835 11 -865 9 -90 51
-252 90 -351 115 -290 332 -547 597 -703 170 -101 316 -153 527 -190 64 -12
234 -15 300 -5 517 72 946 415 1131 904 l23 60 8 -45 c35 -184 98 -397 167
-565 22 -54 144 -299 177 -355 54 -92 149 -228 223 -319 42 -51 81 -100 86
-107 11 -16 -10 -37 -195 -198 -140 -122 -419 -299 -621 -395 -173 -82 -489
-193 -612 -215 -15 -3 -35 -7 -45 -10 -33 -10 -247 -44 -327 -53 -141 -14
-470 -7 -527 11 -7 3 -37 7 -67 11 -69 7 -274 56 -382 91 -760 244 -1370 805
-1682 1549 -32 76 -108 295 -102 295 2 0 -2 17 -9 38 -7 20 -23 84 -35 142
-50 242 -50 244 -45 1210 8 1737 14 2438 19 2476 29 192 150 360 323 445 117
58 171 69 328 64 110 -3 145 -8 210 -31z m1949 -878 c11 -2 47 -7 80 -10 192
-22 418 -75 620 -147 390 -140 733 -357 1031 -654 82 -82 161 -163 175 -180
100 -121 212 -281 283 -405 21 -36 41 -72 46 -80 50 -84 143 -301 190 -440 32
-94 88 -305 96 -360 3 -19 9 -57 14 -85 12 -63 17 -104 25 -183 l6 -62 -677 2
c-668 3 -677 3 -680 23 -2 11 -6 40 -9 65 -23 168 -112 395 -220 559 -48 72
-171 218 -221 261 -195 167 -423 281 -667 331 -110 22 -275 32 -335 19 -20 -5
-55 -11 -77 -15 -134 -20 -339 -98 -480 -182 -108 -65 -238 -169 -327 -261
l-88 -90 6 816 c4 612 8 820 17 829 14 14 199 109 275 141 76 32 223 74 307
88 17 3 36 7 43 9 8 3 44 8 80 11 37 4 69 8 70 10 5 4 393 -5 417 -10z"/>
</g>
</svg>
